<svg xmlns="http://www.w3.org/2000/svg" viewBox="0 0 512 512">
  <defs>
    <linearGradient id="g1" x1="0%" y1="0%" x2="100%" y2="100%">
      <stop offset="0%" stop-color="#4f46e5"/>
      <stop offset="100%" stop-color="#06b6d4"/>
    </linearGradient>
    <linearGradient id="g2" x1="0%" y1="0%" x2="100%" y2="100%">
      <stop offset="0%" stop-color="#ffffff" stop-opacity="0.95"/>
      <stop offset="100%" stop-color="#ffffff" stop-opacity="0.7"/>
    </linearGradient>
  </defs>
  <rect width="512" height="512" rx="96" fill="url(#g1)"/>
  <!-- Mortarboard cap -->
  <polygon points="256,140 432,200 256,260 80,200" fill="url(#g2)"/>
  <polygon points="256,160 388,200 256,240 124,200" fill="rgba(255,255,255,0.25)"/>
  <rect x="246" y="248" width="20" height="60" fill="url(#g2)"/>
  <circle cx="256" cy="320" r="8" fill="url(#g2)"/>
  <!-- Book -->
  <path d="M120 340 L256 360 L392 340 L392 420 L256 440 L120 420 Z" fill="url(#g2)" opacity="0.92"/>
  <path d="M256 360 L256 440" stroke="#4f46e5" stroke-width="3" opacity="0.4"/>
  <!-- Sparkles -->
  <circle cx="380" cy="160" r="5" fill="#ffffff" opacity="0.9"/>
  <circle cx="132" cy="160" r="4" fill="#ffffff" opacity="0.9"/>
  <circle cx="430" cy="290" r="3" fill="#ffffff" opacity="0.8"/>
  <circle cx="82" cy="290" r="3" fill="#ffffff" opacity="0.8"/>
</svg>
